<svg width="243" height="195" viewBox="0 0 243 195" fill="none" xmlns="http://www.w3.org/2000/svg">
<g filter="url(#filter0_d_744_917)">
<path d="M41.5933 70.8121C25.6869 93.3114 42.9241 108.148 71.2404 95.3471C60.9605 73.6235 71.2404 55.1973 93.1868 44.8214C78.8324 15.3394 56.3343 16.8912 56.3343 42.4939C33.8334 37.4508 27.239 56.071 41.5933 70.8121Z" fill="#E7A0A0" stroke="#4D4A4A" stroke-width="7.75841"/>
<path d="M201.194 70.812C217.1 93.3113 199.863 108.148 171.547 95.3469C181.827 73.6234 171.547 55.1971 149.6 44.8213C163.955 15.3393 186.453 16.8911 186.453 42.4937C208.954 37.4507 215.548 56.0709 201.194 70.812Z" fill="#E7A0A0" stroke="#4D4A4A" stroke-width="7.75841"/>
<mask id="mask0_744_917" style="mask-type:alpha" maskUnits="userSpaceOnUse" x="59" y="35" width="121" height="120">
<path d="M175.981 78.667C175.981 92.3609 166.326 104.971 150.68 112.255C149.619 112.749 148.492 113.563 147.775 114.885C147.04 116.241 146.999 117.644 147.227 118.797C147.627 120.822 148.971 122.669 150.129 124.061C151.921 126.218 154.608 128.785 157.328 131.385C158.297 132.311 159.271 133.241 160.21 134.159C163.993 137.855 167.46 141.553 169.519 145.038C170.902 147.378 171.405 149.175 171.289 150.626H171.274H171.125H170.974H170.822H170.67H170.516H170.361H170.205H170.049H169.891H169.732H169.572H169.411H169.25H169.087H168.923H168.758H168.593H168.426H168.258H168.09H167.92H167.75H167.578H167.406H167.233H167.059H166.883H166.707H166.53H166.353H166.174H165.994H165.814H165.632H165.45H165.267H165.082H164.897H164.712H164.525H164.337H164.149H163.96H163.77H163.579H163.387H163.194H163.001H162.806H162.611H162.415H162.219H162.021H161.823H161.624H161.424H161.223H161.022H160.82H160.617H160.413H160.208H160.003H159.797H159.59H159.383H159.174H158.965H158.756H158.545H158.334H158.122H157.909H157.696H157.482H157.267H157.052H156.836H156.619H156.402H156.184H155.965H155.745H155.525H155.304H155.083H154.861H154.638H154.415H154.191H153.966H153.741H153.515H153.289H153.062H152.834H152.606H152.377H152.148H151.917H151.687H151.456H151.224H150.992H150.759H150.525H150.291H150.057H149.822H149.586H149.35H149.113H148.876H148.638H148.4H148.161H147.922H147.682H147.442H147.201H146.96H146.718H146.476H146.233H145.99H145.746H145.502H145.258H145.013H144.767H144.521H144.275H144.028H143.781H143.533H143.285H143.037H142.788H142.539H142.289H142.039H141.789H141.538H141.286H141.035H140.783H140.531H140.278H140.025H139.771H139.518H139.264H139.009H138.754H138.499H138.244H137.988H137.732H137.476H137.219H136.962H136.705H136.447H136.189H135.931H135.673H135.414H135.155H134.896H134.636H134.376H134.116H133.856H133.595H133.335H133.074H132.813H132.551H132.289H132.028H131.765H131.503H131.241H130.978H130.715H130.452H130.189H129.925H129.662H129.398H129.134H128.87H128.606H128.341H128.077H127.812H127.547H127.282H127.017H126.752H126.487H126.221H125.956H125.69H125.424H125.158H124.893H124.627H124.36H124.094H123.828H123.562H123.295H123.029H122.762H122.496H122.229H121.963H121.696H121.429H121.163H120.896H120.629H120.362H120.096H119.829H119.562H119.295H119.029H118.762H118.495H118.228H117.962H117.695H117.429H117.162H116.896H116.629H116.363H116.097H115.83H115.564H115.298H115.032H114.766H114.5H114.235H113.969H113.703H113.438H113.173H112.907H112.642H112.377H112.113H111.848H111.583H111.319H111.055H110.791H110.527H110.263H109.999H109.736H109.473H109.21H108.947H108.684H108.422H108.159H107.897H107.636H107.374H107.112H106.851H106.59H106.33H106.069H105.809H105.549H105.289H105.03H104.77H104.511H104.253H103.994H103.736H103.478H103.221H102.963H102.707H102.45H102.193H101.937H101.682H101.426H101.171H100.916H100.662H100.408H100.154H99.9009H99.6479H99.3952H99.1429H98.891H98.6394H98.3883H98.1375H97.8871H97.637H97.3874H97.1382H96.8894H96.641H96.393H96.1454H95.8982H95.6515H95.4052H95.1594H94.914H94.669H94.4245H94.1805H93.9369H93.6937H93.4511H93.2089H92.9672H92.726H92.4853H92.245H92.0053H91.7661H91.5273H91.2891H91.0514H90.8142H90.5776H90.3415H90.1059H89.8708H89.6363H89.4024H89.169H88.9361H88.7038H88.4721H88.241H88.0104H87.7804H87.5511H87.3222H87.094H86.8664H86.6394H86.413H86.1872H85.9621H85.7375H85.5136H85.2903H85.0677H84.8457H84.6243H84.4036H84.1836H83.9642H83.7454H83.5274H83.31H83.0933H82.8773H82.6619H82.4473H82.2334H82.0201H81.8076H81.5958H81.3846H81.1743H80.9646H80.7557H80.5475H80.34H80.1333H79.9273H79.7221H79.5176H79.3139H79.111H78.9088H78.7074H78.5068H78.307H78.108H77.9097H77.7123H77.5157H77.3198H77.1248H76.9306H76.7373H76.5447H76.353H76.1621H75.9721H75.7829H75.5945H75.407H75.2204H75.0346H74.8497H74.6657H74.4826H74.3003H74.1189H73.9384H73.7589H73.5802H73.4024H73.2255H73.0495H72.8745H72.7004H72.5272H72.3549H72.1836H72.0132H71.8438H71.6753H71.5078H71.3413H71.1757H71.0111H70.8474H70.6847H70.523H70.3624H70.2027H70.0439H69.8862H69.7296H69.5739H69.4192H69.2656H69.1129H68.9614H68.8108H68.6613H68.5128H68.3654H68.219H68.0737H67.9295H67.7863H67.6442H67.5032H67.3632H67.2243H67.0866H66.9499H66.8143H66.6799H66.5465H66.4142H66.2831H66.1531H66.0242H65.8965H65.7699H65.6444H65.5201H65.3969H65.2749H65.154H65.0343H64.9158H64.7985H64.6823H64.5673H64.5218C63.7523 150.099 63.6131 149.676 63.5656 149.474C63.4635 149.042 63.4821 148.128 64.2345 146.517C65.7656 143.24 69.3349 139.152 73.7871 134.832C76.6475 132.057 79.5881 129.446 82.2958 127.042C83.7776 125.726 85.1897 124.473 86.4806 123.288C88.2005 121.709 89.803 120.163 90.835 118.86C91.2971 118.277 91.984 117.334 92.2996 116.205C92.4712 115.592 92.6254 114.599 92.2543 113.49C91.847 112.272 90.9904 111.454 90.1158 110.994C75.9617 103.553 67.3629 91.6027 67.3629 78.667C67.3629 68.1107 73.0589 58.2579 82.8541 50.9115C92.6504 43.5643 106.362 38.9052 121.672 38.9052C136.982 38.9052 150.693 43.5643 160.489 50.9115C170.285 58.2579 175.981 68.1107 175.981 78.667Z" fill="#C4C4C4" stroke="#4D4A4A" stroke-width="7.75841"/>
</mask>
<g mask="url(#mask0_744_917)">
<path d="M175.981 78.667C175.981 92.3609 166.326 104.971 150.68 112.255C149.619 112.749 148.492 113.563 147.775 114.885C147.04 116.241 146.999 117.644 147.227 118.797C147.627 120.822 148.971 122.669 150.129 124.061C151.921 126.218 154.608 128.785 157.328 131.385C158.297 132.311 159.271 133.241 160.21 134.159C163.993 137.855 167.46 141.553 169.519 145.038C170.902 147.378 171.405 149.175 171.289 150.626H171.196H171.09H170.982H170.873H170.762H170.65H170.536H170.421H170.304H170.186H170.066H169.945H169.822H169.698H169.572H169.445H169.317H169.186H169.055H168.922H168.787H168.651H168.514H168.375H168.235H168.093H167.951H167.806H167.66H167.513H167.365H167.215H167.064H166.911H166.757H166.602H166.445H166.287H166.128H165.967H165.805H165.642H165.478H165.312H165.145H164.977H164.807H164.636H164.464H164.291H164.116H163.94H163.763H163.585H163.406H163.225H163.043H162.86H162.676H162.49H162.304H162.116H161.927H161.737H161.545H161.353H161.159H160.965H160.769H160.572H160.374H160.175H159.975H159.773H159.571H159.368H159.163H158.958H158.751H158.543H158.334H158.125H157.914H157.702H157.489H157.275H157.061H156.845H156.628H156.41H156.191H155.972H155.751H155.529H155.307H155.083H154.859H154.633H154.407H154.18H153.952H153.723H153.493H153.262H153.03H152.798H152.564H152.33H152.095H151.859H151.622H151.384H151.145H150.906H150.666H150.425H150.183H149.941H149.697H149.453H149.208H148.963H148.716H148.469H148.221H147.972H147.723H147.473H147.222H146.97H146.718H146.465H146.211H145.957H145.702H145.446H145.19H144.932H144.675H144.416H144.157H143.898H143.637H143.376H143.115H142.853H142.59H142.327H142.063H141.798H141.533H141.268H141.001H140.735H140.467H140.199H139.931H139.662H139.393H139.123H138.852H138.581H138.31H138.038H137.765H137.492H137.219H136.945H136.671H136.396H136.121H135.845H135.569H135.293H135.016H134.739H134.461H134.183H133.904H133.625H133.346H133.066H132.786H132.506H132.225H131.944H131.663H131.381H131.099H130.817H130.534H130.251H129.968H129.684H129.401H129.117H128.832H128.548H128.263H127.978H127.692H127.406H127.121H126.835H126.548H126.262H125.975H125.688H125.401H125.114H124.826H124.539H124.251H123.963H123.675H123.387H123.098H122.81H122.521H122.232H121.944H121.655H121.366H121.076H120.787H120.498H120.208H119.919H119.63H119.34H119.05H118.761H118.471H118.181H117.892H117.602H117.312H117.023H116.733H116.443H116.154H115.864H115.574H115.285H114.995H114.706H114.416H114.127H113.838H113.549H113.26H112.971H112.682H112.393H112.104H111.816H111.527H111.239H110.951H110.663H110.375H110.088H109.8H109.513H109.226H108.939H108.652H108.366H108.079H107.793H107.507H107.222H106.936H106.651H106.366H106.081H105.797H105.513H105.229H104.945H104.662H104.379H104.096H103.814H103.532H103.25H102.969H102.688H102.407H102.126H101.846H101.567H101.287H101.008H100.73H100.452H100.174H99.8965H99.6196H99.343H99.0669H98.7912H98.5159H98.2411H97.9667H97.6928H97.4194H97.1464H96.8739H96.6018H96.3303H96.0592H95.7887H95.5187H95.2491H94.9801H94.7117H94.4437H94.1763H93.9095H93.6432H93.3774H93.1123H92.8477H92.5837H92.3203H92.0574H91.7952H91.5336H91.2726H91.0122H90.7524H90.4933H90.2348H89.977H89.7198H89.4633H89.2075H88.9523H88.6978H88.444H88.1909H87.9385H87.6868H87.4358H87.1856H86.936H86.6872H86.4391H86.1918H85.9453H85.6995H85.4544H85.2102H84.9667H84.724H84.4821H84.241H84.0008H83.7613H83.5226H83.2848H83.0478H82.8117H82.5764H82.3419H82.1083H81.8756H81.6438H81.4128H81.1827H80.9535H80.7253H80.4979H80.2714H80.0459H79.8213H79.5976H79.3748H79.153H78.9322H78.7123H78.4934H78.2755H78.0585H77.8426H77.6276H77.4136H77.2006H76.9887H76.7777H76.5678H76.359H76.1511H75.9443H75.7386H75.5339H75.3303H75.1278H74.9263H74.726H74.5267H74.3285H74.1314H73.9355H73.7407H73.5469H73.3544H73.1629H72.9727H72.7835H72.5955H72.4087H72.2231H72.0386H71.8554H71.6733H71.4924H71.3128H71.1343H70.9571H70.7811H70.6063H70.4327H70.2605H70.0894H69.9196H69.7511H69.5839H69.4179H69.2533H69.0899H68.9278H68.767H68.6076H68.4494H68.2926H68.1371H67.983H67.8302H67.6788H67.5287H67.38H67.2326H67.0866H66.9421H66.7989H66.6571H66.5167H66.3777H66.2402H66.1041H65.9694H65.8361H65.7043H65.574H65.4451H65.3176H65.1917H65.0672H64.9442H64.8227H64.7027H64.5842H64.5218C63.7523 150.099 63.6131 149.676 63.5656 149.474C63.4635 149.042 63.4821 148.128 64.2345 146.517C65.7656 143.24 69.3349 139.152 73.7871 134.832C76.6475 132.057 79.5881 129.446 82.2958 127.042C83.7776 125.726 85.1897 124.473 86.4806 123.288C88.2005 121.709 89.803 120.163 90.835 118.86C91.2971 118.277 91.984 117.334 92.2996 116.205C92.4712 115.592 92.6254 114.599 92.2543 113.49C91.847 112.272 90.9904 111.454 90.1158 110.994C75.9617 103.553 67.3629 91.6027 67.3629 78.667C67.3629 68.1107 73.0589 58.2579 82.8541 50.9115C92.6504 43.5643 106.362 38.9052 121.672 38.9052C136.982 38.9052 150.693 43.5643 160.489 50.9115C170.285 58.2579 175.981 68.1107 175.981 78.667Z" fill="#F4DEDD" stroke="#4D4A4A" stroke-width="7.75841"/>
<circle cx="82.878" cy="100.196" r="19.396" fill="#E7A0A0"/>
<circle cx="159.686" cy="100.197" r="19.396" fill="#E7A0A0"/>
<path d="M175.981 78.667C175.981 92.3609 166.326 104.971 150.68 112.255C149.619 112.749 148.492 113.563 147.775 114.885C147.04 116.241 146.999 117.644 147.227 118.797C147.626 120.822 148.971 122.669 150.129 124.061C151.921 126.218 154.608 128.785 157.328 131.385C158.297 132.311 159.271 133.241 160.209 134.159C163.993 137.855 167.459 141.553 169.519 145.038C170.902 147.378 171.405 149.175 171.288 150.626H171.196H171.09H170.982H170.873H170.762H170.65H170.536H170.421H170.304H170.186H170.066H169.945H169.822H169.698H169.572H169.445H169.316H169.186H169.055H168.922H168.787H168.651H168.514H168.375H168.235H168.093H167.95H167.806H167.66H167.513H167.365H167.215H167.064H166.911H166.757H166.602H166.445H166.287H166.128H165.967H165.805H165.642H165.478H165.312H165.145H164.977H164.807H164.636H164.464H164.291H164.116H163.94H163.763H163.585H163.405H163.225H163.043H162.86H162.676H162.49H162.303H162.116H161.927H161.737H161.545H161.353H161.159H160.965H160.769H160.572H160.374H160.175H159.975H159.773H159.571H159.368H159.163H158.957H158.751H158.543H158.334H158.125H157.914H157.702H157.489H157.275H157.061H156.845H156.628H156.41H156.191H155.972H155.751H155.529H155.307H155.083H154.859H154.633H154.407H154.18H153.952H153.723H153.493H153.262H153.03H152.797H152.564H152.33H152.094H151.858H151.622H151.384H151.145H150.906H150.666H150.425H150.183H149.941H149.697H149.453H149.208H148.962H148.716H148.469H148.221H147.972H147.723H147.473H147.222H146.97H146.718H146.465H146.211H145.957H145.702H145.446H145.189H144.932H144.675H144.416H144.157H143.898H143.637H143.376H143.115H142.853H142.59H142.327H142.063H141.798H141.533H141.267H141.001H140.734H140.467H140.199H139.931H139.662H139.393H139.123H138.852H138.581H138.31H138.038H137.765H137.492H137.219H136.945H136.671H136.396H136.121H135.845H135.569H135.293H135.016H134.738H134.461H134.183H133.904H133.625H133.346H133.066H132.786H132.506H132.225H131.944H131.663H131.381H131.099H130.817H130.534H130.251H129.968H129.684H129.401H129.116H128.832H128.547H128.263H127.977H127.692H127.406H127.121H126.834H126.548H126.262H125.975H125.688H125.401H125.114H124.826H124.539H124.251H123.963H123.675H123.387H123.098H122.81H122.521H122.232H121.943H121.654H121.365H121.076H120.787H120.498H120.208H119.919H119.629H119.34H119.05H118.761H118.471H118.181H117.892H117.602H117.312H117.022H116.733H116.443H116.153H115.864H115.574H115.285H114.995H114.706H114.416H114.127H113.838H113.549H113.26H112.971H112.682H112.393H112.104H111.816H111.527H111.239H110.951H110.663H110.375H110.088H109.8H109.513H109.226H108.939H108.652H108.365H108.079H107.793H107.507H107.221H106.936H106.651H106.366H106.081H105.797H105.513H105.229H104.945H104.662H104.379H104.096H103.814H103.532H103.25H102.969H102.687H102.407H102.126H101.846H101.567H101.287H101.008H100.73H100.452H100.174H99.8965H99.6195H99.3429H99.0668H98.7911H98.5159H98.241H97.9667H97.6927H97.4193H97.1463H96.8738H96.6018H96.3302H96.0592H95.7886H95.5186H95.2491H94.98H94.7116H94.4436H94.1762H93.9094H93.6431H93.3774H93.1122H92.8476H92.5836H92.3202H92.0573H91.7951H91.5335H91.2725H91.0121H90.7524H90.4932H90.2348H89.9769H89.7198H89.4632H89.2074H88.9522H88.6977H88.4439H88.1908H87.9384H87.6867H87.4357H87.1855H86.9359H86.6871H86.4391H86.1918H85.9452H85.6994H85.4544H85.2101H84.9666H84.7239H84.482H84.241H84.0007H83.7612H83.5225H83.2847H83.0477H82.8116H82.5763H82.3418H82.1082H81.8755H81.6437H81.4127H81.1826H80.9535H80.7252H80.4978H80.2713H80.0458H79.8212H79.5975H79.3748H79.153H78.9321H78.7122H78.4933H78.2754H78.0584H77.8425H77.6275H77.4135H77.2005H76.9886H76.7777H76.5677H76.3589H76.151H75.9442H75.7385H75.5338H75.3302H75.1277H74.9262H74.7259H74.5266H74.3284H74.1314H73.9354H73.7406H73.5469H73.3543H73.1629H72.9726H72.7834H72.5955H72.4087H72.223H72.0386H71.8553H71.6732H71.4923H71.3127H71.1342H70.957H70.781H70.6062H70.4327H70.2604H70.0893H69.9196H69.751H69.5838H69.4179H69.2532H69.0898H68.9277H68.7669H68.6075H68.4493H68.2925H68.1371H67.9829H67.8301H67.6787H67.5286H67.3799H67.2325H67.0866H66.942H66.7988H66.657H66.5166H66.3776H66.2401H66.104H65.9693H65.836H65.7042H65.5739H65.445H65.3175H65.1916H65.0671H64.9441H64.8226H64.7026H64.5841H64.5218C63.7522 150.099 63.6131 149.676 63.5655 149.474C63.4634 149.042 63.482 148.128 64.2344 146.517C65.7655 143.24 69.3348 139.152 73.787 134.832C76.6474 132.057 79.5881 129.446 82.2957 127.042C83.7775 125.726 85.1896 124.473 86.4805 123.288C88.2004 121.709 89.8029 120.163 90.8349 118.86C91.297 118.277 91.9839 117.334 92.2995 116.205C92.4711 115.592 92.6253 114.599 92.2543 113.49C91.8469 112.272 90.9903 111.454 90.1157 110.994C75.9616 103.553 67.3628 91.6027 67.3628 78.667C67.3628 68.1107 73.0589 58.2579 82.854 50.9115C92.6504 43.5643 106.362 38.9052 121.672 38.9052C136.982 38.9052 150.693 43.5643 160.489 50.9115C170.285 58.2579 175.981 68.1107 175.981 78.667Z" stroke="#4D4A4A" stroke-width="7.75841"/>
</g>
<circle cx="90.6364" cy="78.4722" r="3.87921" stroke="#4D4A4A" stroke-width="7.75841"/>
<circle cx="152.704" cy="78.4726" r="3.87921" stroke="#4D4A4A" stroke-width="7.75841"/>
<circle cx="121.67" cy="78.4727" r="15.5168" stroke="#E990AE" stroke-width="7.75841"/>
</g>
<defs>
<filter id="filter0_d_744_917" x="0.773142" y="0.735836" width="241.241" height="194.06" filterUnits="userSpaceOnUse" color-interpolation-filters="sRGB">
<feFlood flood-opacity="0" result="BackgroundImageFix"/>
<feColorMatrix in="SourceAlpha" type="matrix" values="0 0 0 0 0 0 0 0 0 0 0 0 0 0 0 0 0 0 127 0" result="hardAlpha"/>
<feOffset dy="10.9526"/>
<feGaussianBlur stdDeviation="14.6686"/>
<feComposite in2="hardAlpha" operator="out"/>
<feColorMatrix type="matrix" values="0 0 0 0 0.267448 0 0 0 0 0.27362 0 0 0 0 0.329167 0 0 0 0.22 0"/>
<feBlend mode="normal" in2="BackgroundImageFix" result="effect1_dropShadow_744_917"/>
<feBlend mode="normal" in="SourceGraphic" in2="effect1_dropShadow_744_917" result="shape"/>
</filter>
</defs>
</svg>
